/* XPM */
static char *collectable[] = {
/* columns rows colors chars-per-pixel */
"64 64 4 1 ",
"  c #272727",
". c #F6CA9F",
"X c #C7CFDD",
"o c white",
/* pixels */
"................................................................",
"................................................................",
"................................................................",
"................................................................",
"................................................................",
"................................................................",
"................................................................",
"................................................................",
"......   ooooooo              oooo            oooooo    ........",
"......   ooooooooo            oooo          oooooooo            ",
"......   ooooooooooo          oooo         ooooooooo            ",
"            ooooooooo         oooo         oooooooo        oooo ",
"             ooooooooo        oooo       oooooooo          oooo ",
"               oooooooo       oooo      ooooooo           ooooo ",
"                 oooooo       oooo     oooooooo          oooooo ",
"                  oooooo      oooo     ooooooo          ooooooo ",
" ooooo             oooooo     oooo   ooooooo           ooooooo  ",
" oooooo            oooooooo   oooo   oooooo          oooooooo   ",
" oooooooooo         oooooooo  oooo  ooooooo         oooooooo    ",
" oooooooooooo        oooooooo oooo  oooooo        ooooooooo     ",
"   oooooooooooooo     ooooooo oooo  ooooo        ooooooooo      ",
"    ooooooooooooooo     ooooo oooo  oooo      oooooooooo        ",
"        ooooooooooooo   ooooo              oooooooooooo         ",
"          oooooooooooo                     oooooooooo           ",
"              oooooooo                     ooooooooo            ",
"                oooooo                     oooooo               ",
"                  oooo  o               o                 ......",
"......                   o             o                  ......",
"......                oooo             oooo               ......",
"......                oooo             oooo               ......",
"......                oooo             oooo               ......",
"......                oooo             oooo     oooo      ......",
"......                                         ooooo      ......",
"......          oooo                           ooooo      ......",
".......         ooooo                          ooooo      ......",
".......         ooooo                          ooooo      ......",
"........        oooooo        ooooooo          oooo       ......",
"........         ooooo        ooooooo         ooooo       ......",
".........        oooooo       ooooooo         ooooo       ......",
".........         oooooo      ooooooo         ooooo       ......",
".........         ooooooo                     oooo        ......",
"..........        oooooooo                   ooooo        ......",
"..........         oooooooo                 oooooo        ......",
"...........         ooooooooo              ooooooo        ......",
"...........          oooooooooo         ooooooooo         ......",
"...........           oooooooooooooooooooooooooo          ......",
"............           oooooooooooooooooooooooo           ......",
"............                ooo        ooo                ......",
"............                 oo         oo                ......",
"............                  o        o                 .......",
"............                                             .......",
"............                                            ........",
"................................................................",
"................................................................",
"................................................................",
"................................................................",
"................................................................",
"................................................................",
"................................................................",
"................................................................",
"................................................................",
"................................................................",
"................................................................",
"................................................................",
};
