/* XPM */
static char *exit[] = {
/* columns rows colors chars-per-pixel */
"64 64 5 1 ",
"  c #1F6E2E",
". c #0C2E44",
"X c #8E251D",
"o c #C64524",
"O c #FFEB57",
/* pixels */
"oooooooooooooooooooooooooooooooooooooooooooooooooooooooooooooooo",
"oooooooooooooooooooooooooooooooooooooooooooooooooooooooooooooooo",
"oooooooooooooooooooooooooooooooooooooooooooooooooooooooooooooooo",
"oooooooooooooooooooooooooooooooooooooooooooooooooooooooooooooooo",
"ooooooXXXXXXXX                                        XXXXXXXXoo",
"ooooo XXXXXXXX                                        XXXXXXXXoo",
"ooooo XXXXXXXX                                        XXXXXXXXoo",
"ooooo XXXXXXXX                                        XXXXXXXXoo",
"ooooo XXXXXXXX                                        XXXXXXXXoo",
"ooooo XXXXXXXX                                        XXXXXXXXoo",
"ooooo XXXXXXXX                                        XXXXXXXXoo",
"ooooo XXXXXXXX                                        XXXXXXXXoo",
"ooooo                                                         oo",
"ooooo                                                         oo",
"ooooo                                                         oo",
"ooooo                                XXXXXXXX                 oo",
"ooooo        oooooXXXXXXXX           XXXXXXXXoooooo           oo",
"ooooo        oooooXXXXXXXX           XXXXXXXXoooooo           oo",
"ooooo        oooooXXXXXXXXX          XXXXXXXXoooooo           oo",
"ooooo        oooooXXXXXXXXX          XXXXXXXXoooooo           oo",
"ooooo        oooooXXXXXXXXX          XXXXXXXXoooooo           oo",
"ooooo        oooooXXXXXXXXX          XXXXXXXXoooooo           oo",
"ooooo        oooooXXXXXXXXX          XXXXXXXXoooooo           oo",
"ooooo        oooooXXXXXXXXX          XXXXXXXXoooooo           oo",
"ooooo        oooooXXXXXXXXX          XXXXXXXXoooooo           oo",
"ooooo        oooooXXXXXXXXX          XXXXXXXXoooooo          ooo",
"ooooo        oooooXXXXXXXXX          XXXXXXXXXoo........     ooo",
"ooooo        oooooXXXXXXXX           XXXXXXXXXoo........     ooo",
"ooooo        oooooXXXXXXXX           XXXXXXXXXoo...........   oo",
"ooooo        oooooXXXXXXXX           XXXXXXXXXoo...........   oo",
"ooooo        oooooXXXXXXXX           XXXXXXXXXoo...........   oo",
"ooooo        oooooXXXXXXXX           XXXXXXXXXoo...........   oo",
"ooooo        oooooXXXXXXXX           XXXXXXXXXoo............  oo",
"ooooo        oooooXXXXXXXX           XXXXXXXXXoo......OOO...  oo",
"ooooo        oooooXXXXXXXX           XXXXXXXXXoo......OOO...  oo",
"ooooo        oooooXXXXXXXX           XXXXXXXXXoo.......OO...  oo",
"ooooo        oooooXXXXXXXX           XXXXXXXXXoo............  oo",
"ooooo        oooooXXXXXXXX           XXXXXXXXooo............  oo",
"ooooo        oooooXXXXXXXX           XXXXXXXXooo............  oo",
"ooooo        oooooXXXXXXXX           XXXXXXXXooo............  oo",
"ooooo        oooooXXXXXXXX           XXXXXXXXooo........      oo",
"ooooo        oooooXXXXXXXX           XXXXXXXXooo........      oo",
"ooooo        oooooXXXXXXXX           XXXXXXXXoooooo           oo",
"ooooo        oooooXXXXXXXX           XXXXXXXXoooooo           oo",
"ooooo        oooooXXXXXXXX           XXXXXXXXoooooo           oo",
"ooooo        oooooXXXXXXXX           XXXXXXXXoooooo           oo",
"ooooo        oooooXXXXXXXX           XXXXXXXXoooooo           oo",
"ooooo         ooooXXXXXXXX           XXXXXXXXoooooo           oo",
"ooooo         ooooXXXXXXXX           XXXXXXXXooooo            oo",
"ooooo         ooooXXXXXXXX           XXXXXXXXooooo            oo",
"ooooo         ooooXXXXXXXX           XXXXXXXXooooo            oo",
"ooooo             XXXXXXXX                                    oo",
"ooooo XXXXXXXX    XXXXXXXX                                    oo",
"ooooo XXXXXXXX                                        XXXXXXXXoo",
"ooooooXXXXXXXX                                        XXXXXXXXoo",
"ooooooXXXXXXXX                                        XXXXXXXXoo",
"ooooooXXXXXXXX                                        XXXXXXXXoo",
"ooooooXXXXXXXX                                        XXXXXXXXoo",
"ooooooXXXXXXXX                                        XXXXXXXXoo",
"ooooooXXXXXXXX                                       oXXXXXXXXoo",
"ooooooooooooooooooooooooooooooooooooooooooooooooooooooXXXXXXXXoo",
"oooooooooooooooooooooooooooooooooooooooooooooooooooooooooooooooo",
"oooooooooooooooooooooooooooooooooooooooooooooooooooooooooooooooo",
"oooooooooooooooooooooooooooooooooooooooooooooooooooooooooooooooo"
};
