/* XPM */
static char *player[] = {
/* columns rows colors chars-per-pixel */
"64 64 25 1 ",
"  c #131313",
". c gray9",
"X c #1B1B1B",
"o c #1D1D1D",
"O c gray13",
"+ c #272727",
"@ c #571C27",
"# c #0C2E44",
"$ c #C42430",
"% c #EA323C",
"& c #FF5000",
"* c #FF0040",
"= c #FF0342",
"- c #FFA214",
"; c #FFEB57",
": c #D3FC7E",
"> c #0C0293",
", c #808080",
"< c gray51",
"1 c #848484",
"2 c gray52",
"3 c #B4B4B4",
"4 c #F68187",
"5 c white",
"6 c None",
/* pixels */
"66666666666666666666666666666666666666666$$$$$$$$666666666666666",
"6666666666666666666$$$$$$6666666666666666$$$&&$$$666666666666666",
"6$$$$$$666666666666$$$$$$$6&6666666666666$$&&&$$$666666666666666",
"6$$$$$$$$6666666666$$$$$&&6&6666666666666$$&&$$$$666666666666666",
"6$$&&&$$$$666666666$$$44&&&&66%%%%6666666$$$$$$$66$$$$$$666&&666",
"6$$&&&$$$$$666666&&$$$44&&&&66%%%%6%%6666$$$$$$66$$$$$$$66&66666",
"6$$$&&&$$$$$666&&&&&$$44$&&&66%%%%6%&&666$$$$$$66$$$$$$$&&666666",
"6$$$$&&&$$$$$666&6&&$$444&&*6%%%%%6%&&666$$$$$$$$$&&$$$$66666666",
"66$$$$&&&$$$$$66&&&&&$$44&&&6%%%%%&&&&66&&6$$$$$$$&&$$$$66666666",
"666$$$$&&$$$$$$6;&&&&&$44$&&6%%6%%&&&666$$$$$$$4&&&&$$$$6$$$$$$$",
"6666$$$$$$$$$$$$=;==&&$44$&&6%%6%&&&66;&$$$$$$4&&&&$$$$$$$$$$$$$",
"666666$$$$$$$$$$$;==&&&$$$&&&%%%%&&%66;&$$$$$4&&&$$$$$$$$$$444$$",
"66666&6$$$$$$$$$$;==*&&$$$$&&6%%%&&666;;$$$$4&&&&$$$$$$$$$4444$$",
"66666&66$$$$$$$$$$$==&&&$$$&&&6%%&&66;;;$$$4&&&$$$---$$$$$444$$$",
"66666&666$$$$$$$$$::==&&$$$$&&6%%&&&6;;;$$$&&&$$*----$$$$$$::$$$",
"666**&&666$$$$44$$:::=&&&$$$&&66%%&&6;;$$$&&&$6*----$44$$$:::$$6",
"666***&&&66$$$444$$:::&&&$$$&&&6%%&&6;$$$&&&$$**---$444$::::$$66",
"6666****&&6$$$$444$$:::&&$$$$&&6%%&&6$$&&&&$$$*---$44:::::::6666",
"66666****6&&$$$444$$::::$$$$$&&6%%666$&&&&$$$$---44::::::$666666",
"666666******&&$$4444$:::$$$$$$$66666=$&&&$$$$----4::::$$$6666666",
"6666666*******6$$444$$::$$$$$$$    ==$$$$$$$$---4:::$$$666666666",
"66666666********$$44$$$$$$$$$$$      $$$$$$$$$$::::$$$6666666666",
"666666666****;;*$$$$$$$$$$$$$$$      $$$$$$$$$::::$$$66666666666",
"666666666666**;;*$$$$$$$$  2           **$$$$:::$$$$666666666666",
"66666666666666****$$$$$$$ 2222222222222**$$$$:::$$$6666666666666",
"66666666666666666**$$$$$$ 222222222222222$$$$$$$$$66666666666666",
"666666666666666666;;;    22  222222  2222$$$$$$$$666666666666666",
"66666666666666666666     233 22222  33222$$$$$$$6666666666666666",
"66666666666666666666     2   22222    2222  66666666666666666666",
"66666666666666666666 3  22    2222   O 222  66666666666666666>66",
"66666666666666666666   22     2222 O   223  66666666666666666>66",
"666666666666666666666  22     2222OO   222  6666666666666666>>66",
"66666666666666666666   2222  2222222  2222  6666666666666666>>66",
"66666666666666666666  22222222222222222222  6666666666666666>>66",
"66666666666666666666  222222222  222222222  666666666666666>>>66",
"6666666666666666666  2232222222  222232222  666666666666666>>666",
"6666666666666666666  22322222222222223332   66666666666666>>>666",
"6666666666666666666 222222222222222222222   6666666666666>>>>666",
"6666666666666666666 2222332 22 2 1< 22322   6666666666666>>>>666",
"6666666666666666666 2222222 22 2 2<o22233   666666666666>>>>>666",
"6666666666666666666 2222222 22 2 22.22223  6666666666666>>>>6666",
"6666666666666666666  223222 22 2 22 22222  6666666666666>>>>6666",
"6666666666666666666  222222 22 2 22 22222 66666666666666>>>>6666",
"6666666666666666666  2222222222222222222  66666666666666>>>>6666",
"66666666666666666666  22222222222222222   66666666666666>>>>6666",
"666666666666666666666  222222222222222    66666666666666>>>>6666",
"66666666666>66666666666                 6666666666666666>>>>6666",
"66666666666>6>66666666666666         6666666666666666666>>>>6666",
"6666666666>>>>6666666666666##########6666666666666666666>>>>6666",
"6666666666>>>666666666666666########66666666666666666666>>>66666",
"6666666666>>>@@@@@@@@@@@@@@@########@@@@@@@@@@@@@@@@@@@>>>>66666",
"6666666666>>>@@@@@@@@@@@@@@@#########@@@@@@@@@@@@@@@@@@@>>>66666",
"6666666666>>>@@@@@@@@@@@@@@@#########@@@@@@@@@@@@@@@@@@@>>666666",
"666666666>>>@@@@@@@@@@@@@@@@@@@@@@@@@@@@@@@@@@@@@@@@@@@@>>666666",
"666666666>>>@@@@@@@@@@@@@@@@@@@@@@@@@@@@@@@@@@@@@@@@@@@@@@666666",
"66666666666666666666666666666666X6666666666666666666666666666666",
"66666666666666666666666666666666X6666666666666666666666666666666",
"66666666666666666666666666666666X6666666666666666666666666666666",
"6666666666666666666666666666666XX6666666666666666666666666666666",
"666666666666666666666666666666XXXXXX6666666666666666666666666666",
"666666665555555555555566666XXXXX6666XX66666655555555555666666666",
"666666655555555565556566XXXXX66666666XXX666655555555555666666666",
"66655555555555555555555XXX6666666666666XXXXX55555555555666666666",
"666666+++++++++++++++++666666666666666666666++++++++++++66666666"
};
