/* XPM */
static char *wall[] = {
/* columns rows colors chars-per-pixel */
"64 64 8 1 ",
"  c #131313",
". c #C42430",
"X c #FFEA57",
"o c #FFEB57",
"O c #FFEC57",
"+ c #FFEA58",
"@ c #FFEB58",
"# c #FFEC58",
/* pixels */
"oooooooooooooooooooooooooooooooooooooooooooooooooooooooooooooooo",
"oooooooooooooooooooooooooooooooooooooooooooooooooooooooooooooooo",
"oooooooooooooooooooooooooooooooooooooooooooooooooooooooooooooooo",
"oooooooooooooooooooooooooooooooooooooooooooooooooooooooooooooooo",
"oooooooooooooooooooooooooooooooooo        oooooooooooooooooooooo",
"o              ooooooooooooo    oo        ooooo          ooooooo",
"o              oooooo    ooo    oo        oooo           ooooooo",
"o              oooooo    ooo    oo        oooo           ooooooo",
"o              oooooo    ooo    oooo    oooooo           ooooooo",
"oooooo    ooooooooooo    ooo    oooo    oooooo    oooooooooooooo",
"oooooo    ooooooooooo    ooo    oooo    oooooo           ooooooo",
"oooooo    ooooooooooo           oooo    oooooo           ooooooo",
"oooooo    ooooooooooo           oooo    oooooo           ooooooo",
"oooooo    ooooooooooo           oooo    oooooo           ooooooo",
"oooooo    ooooooooooo           oooo    ooooooooooooo    ooooooo",
"oooooo    ooooooooooo    ooo    oooo    ooooooo          ooooooo",
"oooooo    ooooooooooo    ooo    ooo       ooooo          ooooooo",
"oooooo    ooooooooooo    ooo    ooo       ooooo          ooooooo",
"oooooo    ooooooooooo    ooo    ooo       ooooo          ooooooo",
"ooooooooooooooooooooooooooooooooooo       ooooooooo     oooooooo",
"oooooooooooooooooooooooooooooooooooooooooooooooooooooooooooooooo",
"ooooooooooooooooooooooooooooooooooooooooooooooooooo#ooo#oooooooo",
"ooooooooooooooooooooooooooooooooooooooooooooooooo#@#o###@#Oooooo",
"oooO@@Ooooooooo          oooooooooooooooooooooO#########o@OOoooo",
"ooOO@@ooooooooo          ooooooo       ooooooOOoooO@##OooOoOOooo",
"oOOO@@ooooooooo          oooooo        oooooOOOOOOOo@@#oOOOoOOoo",
"OOOO@@OOooooooo          ooooo         ooo##OOOoOOoOO@@oOOOo@@oo",
"#oOO@@OOo@ooooooo    ooooooooo         oooo##@@@ooOooo@@O#@@@@oo",
"#@OO@@OOo#ooooooo    ooooooooo      ooooooo#@@@@@oooOO@@O###oOoo",
"#oOO@@oo##ooooooo    ooooooooo     oooooooo#oO@#@@ooOo@@O##Ooooo",
"###O@@@@###ooooo     ooooooooo     ooooooo@#@oOO##ooooooOO#Ooooo",
"##OOoo@@O##ooooo     ooooooooo          ooo#@OOOO#@ooooooo##oooo",
"@ooooooo@#oooooo     ooooooooo           ooOOOO####@ooooooo@@ooo",
"#ooooooooOOooooo     ooooooooo           oooOOO@@@#@oooooo@#oooo",
"#@@oooooo@@@oooo     oooooooooo          oooOOO#@###ooooooo#oooo",
"@@@oooooo@@@oooo     ooooooooooooooo     oooooO####Ooooooooooooo",
"#OOOoooooOOOoooo     oooooooooooooo      ooooooO@@OOOO@@OOoooooo",
"@#OOoooooOOooo           ooooo           oooooooo@ooOO@@OOoooooo",
"ooOO@@ooOOoooo           ooooo           ooooooooooooO@@Oooooooo",
"ooOO##@#Oooooo           ooooo           ooooooooooooooooooooooo",
"oooooooooooooo           ooooo         ooooooooooooooooooooooooo",
"oooooooooooooooooooooooooooooooooooooooooooooooooooooooooooooooo",
"oooooooooooooooooooooooooo...............oooo....oooooo....ooooo",
"oooooooooooooooooooooooooo...............oooo....oooooo....ooooo",
"ooooo......oooooo......ooo...............oooo....oooooo....ooooo",
"ooooo......oooooo......ooo...............oooo....oooooo....ooooo",
"ooooo......oooooo......ooo...............oooo....oooooo....ooooo",
"ooooo......oooooo......ooo......ooooooooooooo....oooooo....ooooo",
"ooooo......oooooo......ooo......ooooooooooooo....oooooo....ooooo",
"ooooo......oooooo......ooo..........ooooooooo....oooooo....ooooo",
"ooooo..................ooo..........ooooooooo....oooooo....ooooo",
"ooooo..................ooo..........ooooooooo....oooooo....ooooo",
"ooooo..................ooo..........ooooooooo....oooooo....ooooo",
"ooooo..................ooo..........ooooooooo....oooooo....ooooo",
"ooooo..................ooo..........ooooooooo....oooooo....ooooo",
"ooooo..................ooo......ooooooooooooo....oooooo....ooooo",
"ooooo......oooooo......ooo...............oooo....oooooo....ooooo",
"ooooo......oooooo......ooo...............oooo....oooooo....ooooo",
"ooooo......oooooo......ooo...............oooo........oo........o",
"ooooo......oooooo......ooo...............oooo........oo........o",
"ooooo......oooooo......ooo...............oooo........oo........o",
"ooooo......oooooo......ooo...............oooo........oo........o",
"ooooooooooooooooooooooooooooooooooooooooooooo........oo........o",
"oooooooooooooooooooooooooooooooooooooooooooooooooooooooooooooooo"
};
